<?xml version="1.0" encoding="UTF-8"?> <svg xmlns="http://www.w3.org/2000/svg" width="117" height="29" viewBox="0 0 117 29" fill="none"> <path fill-rule="evenodd" clip-rule="evenodd" d="M0 0H116.25V22.8348H17.9911L12.4554 28.3705L6.91964 22.8348H0V0ZM53.3915 5.73893C53.1459 5.9866 52.8511 6.11044 52.5073 6.11044C52.1635 6.11044 51.8626 5.9866 51.6047 5.73893C51.3591 5.47887 51.2364 5.17546 51.2364 4.82872C51.2364 4.48197 51.3591 4.18476 51.6047 3.93708C51.8503 3.67702 52.1512 3.54699 52.5073 3.54699C52.8634 3.54699 53.1643 3.67702 53.4099 3.93708C53.6555 4.18476 53.7783 4.48197 53.7783 4.82872C53.7783 5.17546 53.6493 5.47887 53.3915 5.73893ZM51.5126 15.9152V7.28455H53.502V15.9152H51.5126ZM19.6101 3.62599V15.9152H21.5994V3.62599H19.6101ZM32.7583 6.62734H30.8058V8.00194C30.0567 6.92455 28.9884 6.38585 27.6008 6.38585C26.2991 6.38585 25.2001 6.85644 24.3036 7.79761C23.4072 8.72639 22.959 9.85332 22.959 11.1784C22.959 12.5035 23.4072 13.6366 24.3036 14.5777C25.2001 15.5065 26.2991 15.9709 27.6008 15.9709C28.9884 15.9709 30.0567 15.4322 30.8058 14.3548V15.4879C30.8058 16.2929 30.5602 16.9183 30.069 17.3641C29.5901 17.8223 28.9209 18.0514 28.0613 18.0514C26.7473 18.0514 25.8509 17.5746 25.372 16.6211L23.6589 17.6242C24.4448 19.1226 25.9 19.8718 28.0244 19.8718C29.3384 19.8718 30.4558 19.4941 31.3768 18.7387C32.2978 17.9833 32.7583 16.8997 32.7583 15.4879V6.62734ZM27.8771 14.0948C27.042 14.0948 26.3421 13.8161 25.7772 13.2589C25.2246 12.7016 24.9483 12.0081 24.9483 11.1784C24.9483 10.3487 25.2246 9.65518 25.7772 9.09791C26.3421 8.54063 27.042 8.262 27.8771 8.262C28.7121 8.262 29.4059 8.54063 29.9585 9.09791C30.5234 9.65518 30.8058 10.3487 30.8058 11.1784C30.8058 12.0081 30.5234 12.7016 29.9585 13.2589C29.4059 13.8161 28.7121 14.0948 27.8771 14.0948ZM38.9897 16.1567C37.6389 16.1567 36.4907 15.6861 35.5452 14.7449C34.5996 13.8038 34.1268 12.6459 34.1268 11.2713C34.1268 9.89666 34.5996 8.73877 35.5452 7.79761C36.4907 6.85644 37.6389 6.38585 38.9897 6.38585C40.3527 6.38585 41.5009 6.85644 42.4341 7.79761C43.3797 8.73877 43.8525 9.89666 43.8525 11.2713C43.8525 12.6459 43.3797 13.8038 42.4341 14.7449C41.5009 15.6861 40.3527 16.1567 38.9897 16.1567ZM36.9451 13.3703C37.4977 13.9276 38.1792 14.2062 38.9897 14.2062C39.8001 14.2062 40.4817 13.9276 41.0343 13.3703C41.5868 12.813 41.8631 12.1134 41.8631 11.2713C41.8631 10.4292 41.5868 9.72948 41.0343 9.17221C40.4817 8.61494 39.8001 8.3363 38.9897 8.3363C38.1792 8.3363 37.4977 8.61494 36.9451 9.17221C36.3925 9.72948 36.1162 10.4292 36.1162 11.2713C36.1162 12.1134 36.3925 12.813 36.9451 13.3703ZM50.0428 6.46016C48.6552 6.46016 47.7096 7.036 47.2062 8.1877V6.62734H45.2168V15.9152H47.2062V11.2341C47.2062 10.2806 47.4886 9.59945 48.0535 9.19078C48.6183 8.76973 49.2815 8.58398 50.0428 8.63351V6.46016ZM58.6669 8.55921H60.9509V6.62734H58.6669V4.02674L56.6775 4.62116V6.62734H54.9829V8.55921H56.6775V13.0174C56.6775 14.231 57.0091 15.0669 57.6722 15.5251C58.3353 15.9709 59.4282 16.1009 60.9509 15.9152V14.1133C60.4474 14.1381 60.0238 14.1443 59.6799 14.1319C59.3484 14.1072 59.0967 14.0143 58.9247 13.8533C58.7528 13.6799 58.6669 13.4013 58.6669 13.0174V8.55921ZM67.5996 6.38585C68.6557 6.38585 69.5091 6.72641 70.1599 7.40752C70.8108 8.08863 71.1362 9.0236 71.1362 10.2124V15.9152H69.1469V10.4168C69.1469 9.72329 68.9627 9.19078 68.5943 8.81927C68.2259 8.44776 67.7224 8.262 67.0838 8.262C66.3839 8.262 65.819 8.48491 65.3892 8.93072C64.9594 9.36416 64.7445 10.0329 64.7445 10.9369V15.9152H62.7552V3.62599H64.7445V7.81618C65.3462 6.86263 66.2979 6.38585 67.5996 6.38585ZM89.4347 6.11044C89.7786 6.11044 90.0733 5.9866 90.3189 5.73893C90.5768 5.47887 90.7057 5.17546 90.7057 4.82872C90.7057 4.48197 90.5829 4.18476 90.3373 3.93708C90.0917 3.67702 89.7909 3.54699 89.4347 3.54699C89.0786 3.54699 88.7778 3.67702 88.5322 3.93708C88.2866 4.18476 88.1638 4.48197 88.1638 4.82872C88.1638 5.17546 88.2866 5.47887 88.5322 5.73893C88.7901 5.9866 89.0909 6.11044 89.4347 6.11044ZM88.4401 7.28455V15.9152H90.4294V7.28455H88.4401ZM83.097 6.38585C84.1408 6.38585 84.9819 6.72641 85.6205 7.40752C86.259 8.08863 86.5783 9.00503 86.5783 10.1567V15.9152H84.589V10.2867C84.589 9.64279 84.4294 9.14744 84.1101 8.80069C83.7908 8.44156 83.3549 8.262 82.8023 8.262C82.1883 8.262 81.6971 8.46633 81.3287 8.875C80.9726 9.28366 80.7945 9.89666 80.7945 10.714V15.9152H78.8052V10.2867C78.8052 9.64279 78.6517 9.14744 78.3447 8.80069C78.0499 8.44156 77.6263 8.262 77.0737 8.262C76.472 8.262 75.9808 8.47252 75.6001 8.89357C75.2195 9.30224 75.0291 9.90904 75.0291 10.714V15.9152H73.0398V6.62734H75.0291V7.74188C75.6186 6.83786 76.4966 6.38585 77.6632 6.38585C78.842 6.38585 79.7139 6.87501 80.2788 7.85333C80.8927 6.87501 81.8322 6.38585 83.097 6.38585ZM93.459 14.7449C94.3923 15.6861 95.5527 16.1567 96.9404 16.1567C97.8368 16.1567 98.6534 15.94 99.3902 15.5065C100.127 15.0731 100.692 14.4849 101.085 13.7418L99.3718 12.7573C99.1507 13.1908 98.8192 13.5375 98.3771 13.7976C97.9473 14.0576 97.4622 14.1876 96.9219 14.1876C96.1115 14.1876 95.4299 13.909 94.8773 13.3517C94.337 12.7945 94.0669 12.101 94.0669 11.2713C94.0669 10.4415 94.337 9.74805 94.8773 9.19078C95.4299 8.63351 96.1115 8.35488 96.9219 8.35488C97.4745 8.35488 97.9596 8.48491 98.3771 8.74497C98.8069 8.99264 99.1262 9.33939 99.3349 9.78521L101.048 8.78212C100.68 8.05147 100.127 7.46944 99.3902 7.036C98.6534 6.60257 97.8368 6.38585 96.9404 6.38585C95.5527 6.38585 94.3923 6.85644 93.459 7.79761C92.538 8.72639 92.0775 9.88428 92.0775 11.2713C92.0775 12.6459 92.538 13.8038 93.459 14.7449ZM104.038 9.19078C104.038 9.50038 104.204 9.74806 104.536 9.93381C104.879 10.1072 105.291 10.262 105.77 10.3982C106.261 10.522 106.752 10.6706 107.243 10.844C107.734 11.0174 108.146 11.3146 108.477 11.7357C108.821 12.1443 108.993 12.6644 108.993 13.296C108.993 14.1876 108.649 14.8873 107.962 15.3951C107.286 15.9028 106.433 16.1567 105.401 16.1567C104.493 16.1567 103.713 15.9647 103.062 15.5808C102.411 15.1969 101.938 14.6644 101.644 13.9833L103.357 12.9802C103.676 13.8719 104.357 14.3177 105.401 14.3177C106.445 14.3177 106.967 13.9709 106.967 13.2774C106.967 12.9802 106.795 12.7387 106.451 12.553C106.12 12.3672 105.708 12.2124 105.217 12.0886C104.738 11.9524 104.253 11.7976 103.762 11.6242C103.271 11.4508 102.853 11.166 102.509 10.7697C102.178 10.3611 102.012 9.84713 102.012 9.22794C102.012 8.37345 102.331 7.68615 102.97 7.16603C103.621 6.64591 104.425 6.38585 105.383 6.38585C106.144 6.38585 106.82 6.55923 107.409 6.90597C108.011 7.24033 108.471 7.71092 108.791 8.31773L107.114 9.26509C106.795 8.55921 106.218 8.20627 105.383 8.20627C105.002 8.20627 104.683 8.29296 104.425 8.46633C104.167 8.62732 104.038 8.8688 104.038 9.19078ZM14.9408 13.2962L16.0488 15.9142H18.2949L13.5346 3.57641H11.3711L6.6115 15.9142H8.87573L9.96487 13.2962H14.9408ZM14.2918 11.2909H10.6139L12.4529 6.10505L14.2918 11.2909Z" fill="#602B7A"></path> </svg> 