<?xml version="1.0" encoding="UTF-8"?> <svg xmlns="http://www.w3.org/2000/svg" viewBox="0 0 971.51 335.49" data-guides="{&quot;vertical&quot;:[],&quot;horizontal&quot;:[]}"><defs></defs><path fill="rgb(255,255,255)" stroke="none" fill-opacity="1" stroke-width="1" stroke-opacity="1" color="rgb(51, 51, 51)" class="cls-2" x="121.07" y="196.09" width="810.58" height="139.4" rx="45.62" ry="45.62" id="tSvg69d46ce3ad" title="Rectangle 1" d="M224.256 223.8731C224.256 198.6773 244.6797 178.2524 269.8755 178.2535C421.349 178.2535 572.8226 178.2535 724.2961 178.2535C749.4903 178.2546 769.9156 198.6788 769.9156 223.8731C769.9156 224.6231 769.9156 225.3731 769.9156 226.1231C769.9156 251.3181 749.4911 271.7427 724.2961 271.7427C572.8226 271.7427 421.349 271.7427 269.8755 271.7427C244.6805 271.7427 224.256 251.3181 224.256 226.1231C224.256 225.3731 224.256 224.6231 224.256 223.8731Z" style="transform-origin: -5160.16px -4654.26px;"></path><path fill="rgb(255,255,255)" stroke="none" fill-opacity="1" stroke-width="1" stroke-opacity="1" color="rgb(51, 51, 51)" class="cls-3" width="971.51" height="196.09" id="tSvg748fdb1699" title="Rectangle 2" d="M142.755 46.745C360.7528 46.745 578.7505 46.745 796.7483 46.745C796.7483 90.5812 796.7483 134.4174 796.7483 178.2535C578.7505 178.2535 360.7528 178.2535 142.755 178.2535C142.755 134.4174 142.755 90.5812 142.755 46.745Z" style="transform-origin: -5187.49px -4766.76px;"></path><path fill="rgb(255,255,255)" stroke="none" fill-opacity="1" stroke-width="1" stroke-opacity="1" color="rgb(51, 51, 51)" class="cls-3" id="tSvg35ba86709b" title="Path 1" d="M224.256 219.3445C236.1463 205.6475 248.0368 191.9505 259.9273 178.2535C236.1463 178.2535 212.3655 178.2535 188.5845 178.2535C200.475 191.9505 212.3655 205.6475 224.256 219.3445Z"></path><path fill="rgb(255, 255, 255)" stroke="none" fill-opacity="1" stroke-width="1" stroke-opacity="1" color="rgb(51, 51, 51)" class="cls-1" id="tSvg1640d1cf33c" title="Path 2" d="M180.2574 137.1156C188.7708 114.4184 197.2841 91.7213 205.7976 69.0242C210.1821 69.0242 214.5668 69.0242 218.9513 69.0242C227.4041 91.7213 235.8569 114.4184 244.3098 137.1156C240.053 137.1156 235.7963 137.1156 231.5397 137.1156C229.6323 131.6855 227.725 126.2555 225.8176 120.8254C216.7141 120.8254 207.6106 120.8254 198.5071 120.8254C196.6491 126.2555 194.7912 131.6855 192.9333 137.1156C188.7079 137.1156 184.4827 137.1156 180.2574 137.1156ZM201.5162 111.3826C208.571 111.3826 215.6259 111.3826 222.6807 111.3826C219.5662 102.4249 216.4516 93.4672 213.3371 84.5095C213.115 83.812 212.913 83.1078 212.7447 82.3969C212.5697 81.686 212.4014 80.8075 212.2466 79.7613C212.1501 79.7613 212.0536 79.7613 211.9571 79.7613C211.7955 80.68 211.634 81.5117 211.4589 82.2561C211.2839 83.0005 211.0887 83.7181 210.8665 84.4156C207.752 93.4068 204.6375 102.3981 201.5162 111.3826Z"></path><path fill="rgb(255, 255, 255)" stroke="none" fill-opacity="1" stroke-width="1" stroke-opacity="1" color="rgb(51, 51, 51)" class="cls-1" id="tSvg18cb9714e3d" title="Path 3" d="M253.3168 137.1156C253.3168 113.1218 253.3168 89.1281 253.3168 65.1343C257.0977 65.1343 260.8787 65.1343 264.6597 65.1343C264.6597 89.1304 264.6597 113.1263 264.6597 137.1224C260.8787 137.1224 257.0977 137.1224 253.3168 137.1156Z"></path><path fill="rgb(255, 255, 255)" stroke="none" fill-opacity="1" stroke-width="1" stroke-opacity="1" color="rgb(51, 51, 51)" class="cls-1" id="tSvg13d47fe5602" title="Path 4" d="M325.575 132.4143C325.575 140.992 323.165 147.7321 318.3519 152.6412C313.5387 157.5504 306.6993 159.9983 297.8336 159.9983C294.2725 159.9983 290.9942 159.6563 287.9918 158.9789C284.9895 158.2948 281.9468 157.2286 278.8636 155.7732C280.0866 153.0995 281.3095 150.4258 282.5325 147.7522C285.1039 148.9526 287.5947 149.8245 289.9912 150.361C292.3877 150.8975 295.0332 151.1658 297.9279 151.1658C303.0777 151.1658 307.0763 149.6769 309.9373 146.6993C312.7983 143.7216 314.2253 139.5165 314.2253 134.0708C314.2253 132.4724 314.2253 130.874 314.2253 129.2756C314.1468 129.2756 314.0682 129.2756 313.9897 129.2756C312.179 132.2869 309.8901 134.5403 307.1234 136.0426C304.3566 137.5449 301.1659 138.2959 297.5441 138.2959C291.25 138.2959 286.2214 136.0627 282.4584 131.6028C278.6953 127.1363 276.8104 121.1741 276.8104 113.7031C276.8104 105.4071 278.8906 98.7408 283.0575 93.6908C287.2177 88.6408 292.731 86.1191 299.5973 86.1191C302.8353 86.1191 305.6559 86.7428 308.0591 87.9969C310.4556 89.2444 312.4348 91.1557 313.9897 93.7176C314.0682 93.7176 314.1468 93.7176 314.2253 93.7176C314.2253 91.5804 314.2253 89.4433 314.2253 87.3062C318.0063 87.3062 321.7874 87.3062 325.5683 87.3062C325.5683 102.3422 325.5683 117.3783 325.575 132.4143ZM314.2792 113.9915C314.2792 112.0443 314.2792 110.0972 314.2792 108.1501C314.2792 104.5419 313.128 101.4636 310.8259 98.9152C308.5236 96.3667 305.5885 95.0924 302.0343 95.0924C297.773 95.0924 294.4341 96.6283 292.004 99.6998C289.5738 102.7714 288.3554 107.2648 288.3554 113.1867C288.3554 118.2837 289.493 122.2472 291.7616 125.0841C294.0302 127.9143 297.1739 129.336 301.1726 129.336C305.1712 129.336 308.2409 127.9143 310.6576 125.064C313.0742 122.2137 314.2792 118.5251 314.2792 113.9915Z"></path><path fill="rgb(255, 255, 255)" stroke="none" fill-opacity="1" stroke-width="1" stroke-opacity="1" color="rgb(51, 51, 51)" class="cls-1" id="tSvg973ef8851e" title="Path 5" d="M363.0841 138.3026C355.235 138.3026 349.0216 135.9688 344.4508 131.301C339.8732 126.6333 337.5912 120.3895 337.5912 112.5697C337.6248 104.2737 339.9944 97.7952 344.7133 93.1274C349.4323 88.4597 355.861 86.1258 363.9929 86.1258C371.8084 86.0923 377.9344 88.3926 382.3638 93.0134C386.8 97.6342 389.0148 103.8847 389.0148 111.7716C389.0148 119.6584 386.6789 126.3248 382.007 131.1199C377.3352 135.9152 371.0277 138.316 363.0841 138.3026ZM363.6092 129.3293C368.1195 129.3293 371.5526 127.8472 373.902 124.8896C376.2514 121.932 377.4295 117.6466 377.4295 112.0465C377.4295 106.4466 376.2447 102.3355 373.8751 99.4382C371.5055 96.5411 368.0657 95.0924 363.5554 95.0924C359.0452 95.0924 355.5581 96.6215 353 99.673C350.442 102.7312 349.163 106.963 349.163 112.3752C349.163 117.7874 350.4286 121.9655 352.9529 124.9097C355.4773 127.8539 359.0317 129.3226 363.6092 129.3293Z"></path><path fill="rgb(255, 255, 255)" stroke="none" fill-opacity="1" stroke-width="1" stroke-opacity="1" color="rgb(51, 51, 51)" class="cls-1" id="tSvg1615f9cccb1" title="Path 6" d="M428.9541 96.8026C428.3146 96.6417 427.702 96.5209 427.0961 96.4203C426.4903 96.3197 425.7902 96.2795 425.0025 96.2795C421.0308 96.2795 417.9545 97.7751 415.7801 100.7661C413.599 103.7573 412.5152 107.6739 412.5152 112.516C412.5152 120.7159 412.5152 128.9157 412.5152 137.1156C408.7185 137.1156 404.9218 137.1156 401.1251 137.1156C401.1251 120.5124 401.1251 103.9093 401.1251 87.3062C404.9218 87.3062 408.7185 87.3062 412.5152 87.3062C412.5152 90.5029 412.5152 93.6997 412.5152 96.8965C412.578 96.8965 412.6408 96.8965 412.7037 96.8965C413.8481 93.4426 415.5647 90.8404 417.8535 89.0834C420.1422 87.3263 422.8416 86.4477 425.9584 86.4477C426.8134 86.4477 427.6077 86.4947 428.3415 86.5886C429.0753 86.6825 429.7753 86.8233 430.4417 87.0178C429.9481 90.2771 429.4544 93.5365 428.9608 96.7959C428.9586 96.7982 428.9563 96.8004 428.9541 96.8026Z"></path><path fill="rgb(255, 255, 255)" stroke="none" fill-opacity="1" stroke-width="1" stroke-opacity="1" color="rgb(51, 51, 51)" class="cls-1" id="tSvgae59b60193" title="Path 7" d="M444.7265 78.5206C442.6598 78.5206 440.9567 77.8701 439.6036 76.5757C438.2506 75.2746 437.5774 73.6784 437.5774 71.7805C437.5774 69.7887 438.2506 68.1523 439.6036 66.8915C440.9499 65.6239 442.6598 64.9935 444.7265 64.9935C446.7931 64.9935 448.5097 65.6239 449.8762 66.8915C451.2427 68.159 451.9227 69.7887 451.9227 71.7805C451.9227 73.7723 451.236 75.3149 449.8762 76.6025C448.5097 77.8835 446.7931 78.5273 444.7265 78.5206ZM450.3003 137.1156C446.5194 137.1156 442.7384 137.1156 438.9574 137.1156C438.9574 120.5124 438.9574 103.9093 438.9574 87.3062C442.7384 87.3062 446.5194 87.3062 450.3003 87.3062C450.3003 103.9093 450.3003 120.5124 450.3003 137.1156Z"></path><path fill="rgb(255, 255, 255)" stroke="none" fill-opacity="1" stroke-width="1" stroke-opacity="1" color="rgb(51, 51, 51)" class="cls-1" id="tSvg185fb8cf620" title="Path 8" d="M493.5382 136.4047C492.111 137.0352 490.5964 137.4979 489.0077 137.7796C487.4191 138.0613 485.7227 138.2087 483.9051 138.2087C479.2332 138.2087 475.652 136.9815 473.1545 134.5269C470.657 132.0723 469.4116 128.4239 469.4116 123.5818C469.4116 114.4184 469.4116 105.2551 469.4116 96.0917C466.6315 96.0917 463.8513 96.0917 461.0711 96.0917C461.0711 93.1632 461.0711 90.2346 461.0711 87.3062C463.8513 87.3062 466.6315 87.3062 469.4116 87.3062C469.4116 83.5393 469.4116 79.7725 469.4116 76.0056C473.1927 74.8655 476.9737 73.7254 480.7546 72.5853C480.7546 77.4923 480.7546 82.3992 480.7546 87.3062C484.7421 87.3062 488.7294 87.3062 492.7169 87.3062C492.7169 90.2346 492.7169 93.1632 492.7169 96.0917C488.7294 96.0917 484.7421 96.0917 480.7546 96.0917C480.7546 104.9242 480.7546 113.7567 480.7546 122.5892C480.7546 125.0573 481.2056 126.8345 482.1144 127.9076C483.0232 128.9872 484.41 129.5238 486.2814 129.5238C487.2037 129.5238 488.0787 129.4232 488.9067 129.2153C489.7347 129.0074 490.4819 128.7324 491.1484 128.3837C491.9427 131.0596 492.7371 133.7355 493.5382 136.4047Z"></path><path fill="rgb(255, 255, 255)" stroke="none" fill-opacity="1" stroke-width="1" stroke-opacity="1" color="rgb(51, 51, 51)" class="cls-1" id="tSvgee1646e626" title="Path 9" d="M547.6746 137.1156C543.9094 137.1156 540.1441 137.1156 536.3788 137.1156C536.3788 127.6035 536.3788 118.0914 536.3788 108.5793C536.3788 104.0524 535.5509 100.6722 533.9016 98.439C532.2523 96.2057 529.7413 95.0924 526.3687 95.0924C522.9962 95.0924 520.1958 96.3667 517.9541 98.9152C515.7125 101.4636 514.595 104.7633 514.595 108.8141C514.595 118.2479 514.595 127.6818 514.595 137.1156C510.814 137.1156 507.033 137.1156 503.252 137.1156C503.252 113.1218 503.252 89.1281 503.252 65.1343C507.033 65.1343 510.814 65.1343 514.595 65.1343C514.595 75.1539 514.595 85.1735 514.595 95.193C514.6601 95.193 514.7252 95.193 514.7902 95.193C516.6952 92.1214 518.9773 89.8412 521.6296 88.3524C524.282 86.8635 527.3246 86.1191 530.7578 86.1191C536.4124 86.1191 540.6467 87.8226 543.4606 91.2227C546.2744 94.623 547.6746 99.7132 547.6746 106.4869C547.6746 116.6965 547.6746 126.9061 547.6746 137.1156Z"></path><path fill="rgb(255, 255, 255)" stroke="none" fill-opacity="1" stroke-width="1" stroke-opacity="1" color="rgb(51, 51, 51)" class="cls-1" id="tSvg1362942c667" title="Path 10" d="M636.8093 137.1156C633.0284 137.1156 629.2474 137.1156 625.4664 137.1156C625.4664 127.6035 625.4664 118.0914 625.4664 108.5793C625.4664 103.8981 624.6989 100.4777 623.1575 98.325C621.6159 96.1722 619.1319 95.0991 615.6986 95.0991C612.6762 95.0991 610.1518 96.4338 608.1187 99.1097C606.0857 101.7855 605.0692 105.0718 605.0692 108.9616C605.0692 118.3485 605.0692 127.7354 605.0692 137.1224C601.2883 137.1224 597.5073 137.1224 593.7264 137.1224C593.7264 127.3889 593.7264 117.6555 593.7264 107.9221C593.7264 103.65 592.9051 100.4442 591.2693 98.3049C589.6335 96.1655 587.1966 95.0991 583.9519 95.0991C580.7072 95.0991 578.2568 96.3734 576.3046 98.9219C574.3525 101.4703 573.3764 104.8505 573.3764 109.0621C573.3764 118.4156 573.3764 127.769 573.3764 137.1224C569.5797 137.1224 565.7829 137.1224 561.9863 137.1224C561.9863 120.5169 561.9863 103.9115 561.9863 87.3062C565.7829 87.3062 569.5797 87.3062 573.3764 87.3062C573.3764 89.9172 573.3764 92.5283 573.3764 95.1394C573.4392 95.1394 573.502 95.1394 573.5649 95.1394C575.2477 92.2891 577.449 90.0759 580.1619 88.4932C582.8816 86.9105 585.9512 86.1191 589.3844 86.1191C592.8176 86.1191 595.7795 86.9842 598.2702 88.7078C600.761 90.4313 602.5651 92.8457 603.6759 95.9509C605.5539 92.6579 607.8764 90.1966 610.6566 88.567C613.4369 86.9373 616.668 86.1191 620.357 86.1191C625.8232 86.1191 629.9295 87.7957 632.6761 91.1557C635.4226 94.509 636.7959 99.5455 636.7959 106.2588C636.7959 116.5467 636.7959 126.8345 636.8093 137.1156Z"></path><path fill="rgb(255, 255, 255)" stroke="none" fill-opacity="1" stroke-width="1" stroke-opacity="1" color="rgb(51, 51, 51)" class="cls-1" id="tSvg1371acc2481" title="Path 11" d="M656.8227 78.5206C654.7561 78.5206 653.0529 77.8701 651.6999 76.5757C650.3469 75.2746 649.6737 73.6784 649.6737 71.7805C649.6737 69.7887 650.3469 68.1523 651.6999 66.8915C653.0462 65.6239 654.7561 64.9935 656.8227 64.9935C658.8894 64.9935 660.606 65.6239 661.9726 66.8915C663.339 68.159 664.0189 69.7887 664.0189 71.7805C664.0189 73.7723 663.3323 75.3149 661.9726 76.6025C660.606 77.8835 658.8894 78.5273 656.8227 78.5206ZM662.3966 137.1156C658.6156 137.1156 654.8346 137.1156 651.0537 137.1156C651.0537 120.5124 651.0537 103.9093 651.0537 87.3062C654.8346 87.3062 658.6156 87.3062 662.3966 87.3062C662.3966 103.9093 662.3966 120.5124 662.3966 137.1156Z"></path><path fill="rgb(255, 255, 255)" stroke="none" fill-opacity="1" stroke-width="1" stroke-opacity="1" color="rgb(51, 51, 51)" class="cls-1" id="tSvgbba23b138" title="Path 12" d="M715.9744 133.8898C713.4971 135.439 711.0063 136.5657 708.5156 137.2632C706.0182 137.9607 703.3254 138.3093 700.4376 138.3093C692.7499 138.3093 686.6106 136.0627 682.0128 131.5693C677.4218 127.076 675.1263 121.0132 675.1263 113.3812C675.1263 105.0584 677.5228 98.4323 682.3225 93.5097C687.1222 88.5871 693.5712 86.1258 701.6761 86.1258C704.4698 86.1258 707.0279 86.4276 709.3504 87.0312C711.6728 87.6348 714.0087 88.6005 716.3581 89.9284C714.8636 92.5551 713.3692 95.1819 711.8747 97.8086C710.2255 96.8563 708.5964 96.1722 706.9875 95.743C705.3854 95.3138 703.662 95.0991 701.8175 95.0991C696.9842 95.0991 693.2615 96.6752 690.6429 99.8205C688.0175 102.9726 686.7116 107.1709 686.7116 112.4288C686.7116 117.6868 688.0983 122.0125 690.8786 124.9433C693.6587 127.874 697.1929 129.336 701.4877 129.336C702.8879 129.336 704.4362 129.1012 706.1326 128.6251C707.829 128.149 709.5523 127.3442 711.3025 126.2041C712.8598 128.7682 714.4171 131.3323 715.9744 133.8898Z"></path><path fill="rgb(255, 255, 255)" stroke="none" fill-opacity="1" stroke-width="1" stroke-opacity="1" color="rgb(51, 51, 51)" class="cls-1" id="tSvg32c287fe2" title="Path 13" d="M721.7905 133.2258C723.4421 130.5678 725.0936 127.9098 726.7451 125.2518C728.6502 126.5797 730.6966 127.6594 732.871 128.4775C735.0453 129.3024 737.4351 129.7116 740.0469 129.7116C742.8406 129.7116 745.0217 129.2086 746.5768 128.1893C748.1318 127.1766 748.9127 125.6407 748.9127 123.5818C748.9127 121.9387 748.253 120.5773 746.9336 119.4975C745.6141 118.4245 743.4263 117.5191 740.3768 116.7881C734.15 115.3328 729.7879 113.4013 727.2904 110.9936C724.7929 108.586 723.5475 105.4205 723.5475 101.4971C723.5475 96.9703 725.3315 93.2749 728.906 90.4112C732.4805 87.5476 737.0918 86.1124 742.7531 86.1124C745.5468 86.1124 748.2193 86.4678 750.7639 87.1787C753.3017 87.8896 755.7656 89.0231 758.1486 90.5722C756.6542 93.152 755.1597 95.7318 753.6653 98.3116C751.538 96.9837 749.5926 96.0314 747.8289 95.4613C746.0652 94.8912 744.2476 94.6029 742.3694 94.6029C739.6701 94.6029 737.563 95.1126 736.0551 96.1253C734.5472 97.138 733.7932 98.5463 733.7932 100.3503C733.7932 102.1544 734.5135 103.5091 735.9608 104.4078C737.4082 105.3132 739.9258 106.1851 743.5138 107.0435C748.9464 108.3446 752.9248 110.2089 755.4559 112.6501C757.9803 115.0913 759.2459 118.3642 759.2459 122.4819C759.2459 127.2637 757.4754 131.0931 753.9345 133.9702C750.3936 136.8474 745.6141 138.2892 739.6095 138.2892C736.3378 138.2892 733.221 137.8601 730.2658 137.0083C727.3106 136.1566 724.4832 134.8891 721.7905 133.2258Z"></path><path fill="rgb(255, 255, 255)" stroke="none" fill-opacity="1" stroke-width="1" stroke-opacity="1" color="rgb(51, 51, 51)" class="cls-1" id="tSvg96a1e2fe41" title="Path 14" d="M262.5325 249.1618C262.5325 234.1056 262.5325 219.0494 262.5325 203.9932C268.4272 203.9932 274.3219 203.9932 280.2167 203.9932C286.0867 203.9932 290.7115 205.3815 294.0773 208.1579C297.4432 210.9345 299.1261 214.7908 299.1261 219.7402C299.1261 223.013 298.3722 225.8162 296.8575 228.1636C295.3429 230.5109 293.1888 232.3015 290.3816 233.549C287.5745 234.7964 284.1884 235.42 280.2167 235.42C275.5112 235.42 270.8058 235.42 266.1003 235.42C267.0719 234.4298 268.0435 233.4394 269.0151 232.4491C269.0151 238.0199 269.0151 243.5909 269.0151 249.1618C266.8565 249.1618 264.6978 249.1618 262.5325 249.1618ZM269.0084 233.0929C268.0368 232.04 267.0652 230.987 266.0935 229.9341C270.7362 229.9341 275.3788 229.9341 280.0215 229.9341C284.1682 229.9341 287.3052 229.0421 289.4459 227.2582C291.5799 225.4742 292.6502 222.966 292.6502 219.7402C292.6502 216.5143 291.5799 214.0195 289.4459 212.2557C287.3119 210.4918 284.1682 209.6066 280.0215 209.6066C275.3788 209.6066 270.7362 209.6066 266.0935 209.6066C267.0652 208.5313 268.0368 207.456 269.0084 206.3807C269.0084 215.2848 269.0084 224.1889 269.0084 233.0929ZM292.8455 249.1618C289.0016 243.6982 285.1578 238.2345 281.314 232.771C283.623 232.771 285.9319 232.771 288.2409 232.771C292.1274 238.2345 296.0138 243.6982 299.9003 249.1618C297.5464 249.1618 295.1925 249.1618 292.8455 249.1618Z"></path><path fill="rgb(255, 255, 255)" stroke="none" fill-opacity="1" stroke-width="1" stroke-opacity="1" color="rgb(51, 51, 51)" class="cls-1" id="tSvg18f84c6be33" title="Path 15" d="M318.426 249.5507C315.8746 249.5507 313.6464 249.1215 311.7212 248.2631C309.8026 247.4046 308.3216 246.2108 307.2849 244.6818C306.2483 243.1527 305.7299 241.4224 305.7299 239.4842C305.7299 237.546 306.1742 235.9565 307.0561 234.4544C307.9379 232.9454 309.3853 231.7449 311.3981 230.8395C313.404 229.9341 316.117 229.4848 319.5232 229.4848C323.1493 229.4848 326.7755 229.4848 330.4017 229.4848C330.4017 230.9692 330.4017 232.4536 330.4017 233.9379C326.8608 233.9379 323.3199 233.9379 319.779 233.9379C316.669 233.9379 314.5754 234.4544 313.4983 235.4871C312.4213 236.5199 311.876 237.7673 311.876 239.2294C311.876 240.906 312.5425 242.254 313.882 243.26C315.2216 244.2727 317.0796 244.7757 319.4492 244.7757C321.8188 244.7757 323.818 244.2593 325.5683 243.2265C327.3185 242.1937 328.5774 240.6914 329.3583 238.713C329.7689 240.1325 330.1796 241.5521 330.5902 242.9717C329.7689 244.9969 328.3216 246.5931 326.2482 247.7802C324.1748 248.9606 321.563 249.5574 318.4125 249.5574C318.417 249.5552 318.4215 249.553 318.426 249.5507ZM329.6949 249.1618C329.6949 246.7518 329.6949 244.342 329.6949 241.9321C329.5872 241.4805 329.4795 241.029 329.3717 240.5774C329.3717 236.4685 329.3717 232.3597 329.3717 228.2507C329.3717 225.6285 328.6043 223.5965 327.0695 222.1545C325.5346 220.7126 323.2391 219.995 320.1695 219.995C318.1365 219.995 316.1506 220.3303 314.2119 220.9943C312.2665 221.665 310.6306 222.5569 309.291 223.6702C308.4271 222.121 307.5632 220.5718 306.6993 219.0226C308.4697 217.6008 310.597 216.5143 313.0809 215.7631C315.5649 215.0121 318.1634 214.6365 320.8831 214.6365C325.5885 214.6365 329.2169 215.7766 331.7615 218.0568C334.306 220.337 335.5851 223.8245 335.5851 228.5123C335.5851 235.3954 335.5851 242.2786 335.5851 249.1618C333.6216 249.1618 331.6583 249.1618 329.6949 249.1618Z"></path><path fill="rgb(255, 255, 255)" stroke="none" fill-opacity="1" stroke-width="1" stroke-opacity="1" color="rgb(51, 51, 51)" class="cls-1" id="tSvge417149c93" title="Path 16" d="M347.1165 249.1618C347.1165 233.2025 347.1165 217.2431 347.1165 201.2838C349.1899 201.2838 351.2633 201.2838 353.3366 201.2838C353.3366 208.8756 353.3366 216.4673 353.3366 224.0592C353.1212 226.7038 352.9058 229.3484 352.6904 231.993C352.8205 234.6377 352.9507 237.2822 353.0808 239.9269C353.0808 243.0029 353.0808 246.0789 353.0808 249.155C351.095 249.155 349.1091 249.155 347.1165 249.1618ZM365.3191 249.5507C362.384 249.5507 359.7385 248.8935 357.3824 247.5857C355.0263 246.2712 353.175 244.3264 351.8152 241.7443C350.4555 239.1623 349.7756 235.9364 349.7756 232.0668C349.7756 228.1971 350.4757 224.9713 351.8825 222.3893C353.2828 219.8072 355.1609 217.8757 357.5171 216.5813C359.8732 215.2938 362.4716 214.6432 365.3191 214.6432C368.685 214.6432 371.6671 215.3743 374.2588 216.8362C376.8506 218.2982 378.897 220.3303 380.4117 222.9325C381.9195 225.5346 382.6802 228.5794 382.6802 232.0601C382.6802 235.5407 381.9262 238.5989 380.4117 241.2212C378.897 243.8435 376.8506 245.8889 374.2588 247.351C371.6671 248.813 368.6917 249.544 365.3191 249.5507ZM364.8007 244.1319C367.002 244.1319 368.9812 243.6356 370.7247 242.6497C372.4682 241.6639 373.8549 240.2488 374.8714 238.4246C375.8879 236.6004 376.3928 234.4812 376.3928 232.0668C376.3928 229.6524 375.8879 227.4996 374.8714 225.7089C373.8549 223.9251 372.4749 222.5368 370.7247 221.5442C368.9745 220.5517 367.002 220.0621 364.8007 220.0621C362.5995 220.0621 360.6877 220.5584 358.9375 221.5442C357.1872 222.5301 355.8072 223.9184 354.7907 225.7089C353.7742 227.4929 353.2693 229.6122 353.2693 232.0668C353.2693 234.5214 353.7742 236.5937 354.7907 238.4246C355.8072 240.2555 357.1872 241.6639 358.9375 242.6497C360.6877 243.6356 362.6398 244.1319 364.8007 244.1319Z"></path><path fill="rgb(255, 255, 255)" stroke="none" fill-opacity="1" stroke-width="1" stroke-opacity="1" color="rgb(51, 51, 51)" class="cls-1" id="tSvg226060d3a2" title="Path 17" d="M401.0039 249.5507C398.4527 249.5507 396.2244 249.1215 394.2991 248.2631C392.3806 247.4046 390.8996 246.2108 389.863 244.6818C388.8263 243.1527 388.308 241.4224 388.308 239.4842C388.308 237.546 388.7523 235.9565 389.6341 234.4544C390.5159 232.9454 391.9632 231.7449 393.976 230.8395C395.9821 229.9341 398.695 229.4848 402.1012 229.4848C405.7274 229.4848 409.3536 229.4848 412.9797 229.4848C412.9797 230.9692 412.9797 232.4536 412.9797 233.9379C409.4388 233.9379 405.8979 233.9379 402.357 233.9379C399.247 233.9379 397.1534 234.4544 396.0763 235.4871C394.9993 236.5199 394.454 237.7673 394.454 239.2294C394.454 240.906 395.1204 242.254 396.4601 243.26C397.7997 244.2727 399.6577 244.7757 402.0271 244.7757C404.3967 244.7757 406.3961 244.2593 408.1463 243.2265C409.8966 242.1937 411.1553 240.6914 411.9362 238.713C412.3469 240.1325 412.7575 241.5521 413.1682 242.9717C412.3469 244.9969 410.8995 246.5931 408.8262 247.7802C406.7529 248.9606 404.1409 249.5574 401.0039 249.5507ZM412.2728 249.1618C412.2728 246.7518 412.2728 244.342 412.2728 241.9321C412.1651 241.4805 412.0574 241.029 411.9497 240.5774C411.9497 236.4685 411.9497 232.3597 411.9497 228.2507C411.9497 225.6285 411.1823 223.5965 409.6475 222.1545C408.1127 220.7126 405.8171 219.995 402.7474 219.995C400.7144 219.995 398.7287 220.3303 396.7899 220.9943C394.8444 221.665 393.2086 222.5569 391.869 223.6702C391.0051 222.121 390.1412 220.5718 389.2773 219.0226C391.0477 217.6008 393.1749 216.5143 395.659 215.7631C398.143 215.0121 400.7414 214.6365 403.461 214.6365C408.1665 214.6365 411.7949 215.7766 414.3395 218.0568C416.8841 220.337 418.1631 223.8245 418.1631 228.5123C418.1631 235.3954 418.1631 242.2786 418.1631 249.1618C416.1997 249.1618 414.2363 249.1618 412.2728 249.1618Z"></path><path fill="rgb(255, 255, 255)" stroke="none" fill-opacity="1" stroke-width="1" stroke-opacity="1" color="rgb(51, 51, 51)" class="cls-1" id="tSvg18eb47be109" title="Path 18" d="M424.7737 220.0621C424.7737 218.3631 424.7737 216.6641 424.7737 214.9652C432.0708 214.9652 439.368 214.9652 446.6652 214.9652C446.6652 216.6641 446.6652 218.3631 446.6652 220.0621C439.368 220.0621 432.0708 220.0621 424.7737 220.0621ZM441.4818 249.5507C438.0284 249.5507 435.3492 248.6252 433.4508 246.7742C431.5525 244.9232 430.6033 242.2809 430.6033 238.8404C430.6033 228.3871 430.6033 217.9338 430.6033 207.4806C432.6767 207.4806 434.7501 207.4806 436.8235 207.4806C436.8235 217.8467 436.8235 228.2127 436.8235 238.5788C436.8235 240.4298 437.2879 241.8516 438.2169 242.8375C439.1458 243.8301 440.472 244.3197 442.2021 244.3197C444.1475 244.3197 445.7632 243.7832 447.0624 242.7034C447.7109 244.1878 448.3594 245.6721 449.0078 247.1565C448.0587 247.9747 446.921 248.5783 445.6083 248.9606C444.2889 249.3495 442.9224 249.544 441.4818 249.5507Z"></path><path fill="rgb(255, 255, 255)" stroke="none" fill-opacity="1" stroke-width="1" stroke-opacity="1" color="rgb(51, 51, 51)" class="cls-1" id="tSvg4f76018574" title="Path 19" d="M471.7274 234.1257C471.7274 232.3395 471.7274 230.5533 471.7274 228.7672C477.5347 228.7672 483.3419 228.7672 489.149 228.7672C489.149 230.5533 489.149 232.3395 489.149 234.1257C483.3419 234.1257 477.5347 234.1257 471.7274 234.1257Z"></path><path fill="rgb(255, 255, 255)" stroke="none" fill-opacity="1" stroke-width="1" stroke-opacity="1" color="rgb(51, 51, 51)" class="cls-1" id="tSvg8c4dffa325" title="Path 20" d="M530.2799 249.6782C526.8265 249.6782 523.5213 249.155 520.3708 248.0954C517.2203 247.0425 514.7364 245.6743 512.9255 243.9978C513.7244 242.3211 514.5232 240.6445 515.322 238.9678C517.0453 240.4768 519.2466 241.7242 521.9258 242.7101C524.6051 243.7027 527.3852 244.1923 530.2799 244.1923C532.912 244.1923 535.0527 243.8905 536.6884 243.2869C538.331 242.6833 539.536 241.8584 540.3169 240.8054C541.091 239.7525 541.4815 238.5587 541.4815 237.2241C541.4815 235.6749 540.9766 234.4275 539.9601 233.4819C538.9436 232.5363 537.6309 231.7717 536.0086 231.1882C534.3863 230.6048 532.6091 230.1018 530.6636 229.6725C528.7181 229.2433 526.7659 228.7403 524.8003 228.1569C522.8346 227.5734 521.044 226.8357 519.4216 225.9303C517.7992 225.025 516.4934 223.8111 515.5038 222.282C514.5075 220.7529 514.0161 218.7878 514.0161 216.3801C514.0161 213.9726 514.6287 211.9204 515.8606 209.962C517.0924 208.0037 518.9908 206.4343 521.5623 205.2541C524.1339 204.0737 527.3987 203.4768 531.3772 203.4768C534.0093 203.4768 536.6211 203.8189 539.2129 204.5097C541.8046 205.2004 544.0463 206.1862 545.9513 207.4806C545.2401 209.2019 544.5287 210.9233 543.8174 212.6447C541.8719 211.357 539.8255 210.4181 537.6645 209.8346C535.5037 209.2511 533.4102 208.9627 531.3839 208.9627C528.8325 208.9627 526.739 209.2847 525.1032 209.9285C523.4607 210.5723 522.2624 211.4375 521.5085 212.5105C520.7545 213.5836 520.3775 214.7908 520.3775 216.1253C520.3775 217.7148 520.8824 218.989 521.8989 219.9347C522.9154 220.8803 524.2281 221.6314 525.8505 222.1948C527.4727 222.7514 529.2499 223.2611 531.1954 223.7105C533.1409 224.1598 535.0931 224.6695 537.0587 225.2262C539.0244 225.7827 540.815 226.5137 542.4374 227.4191C544.0597 228.3245 545.359 229.525 546.3552 231.034C547.3515 232.543 547.8429 234.4745 547.8429 236.8418C547.8429 239.2092 547.2169 241.2413 545.9647 243.1997C544.7127 245.1579 542.7807 246.7273 540.1688 247.9076C537.5568 249.088 534.2651 249.6849 530.2799 249.6782Z"></path><path fill="rgb(255, 255, 255)" stroke="none" fill-opacity="1" stroke-width="1" stroke-opacity="1" color="rgb(51, 51, 51)" class="cls-1" id="tSvg4ff98ce03" title="Path 21" d="M571.0808 249.5507C567.6274 249.5507 564.5578 248.7996 561.8853 247.2906C559.2061 245.7883 557.0923 243.7094 555.5372 241.067C553.9823 238.4179 553.2081 235.42 553.2081 232.0668C553.2081 228.7135 553.9823 225.6553 555.5372 223.0331C557.0923 220.4108 559.2061 218.3519 561.8853 216.8697C564.5646 215.3877 567.6274 214.6432 571.0808 214.6432C574.5343 214.6432 577.5433 215.3877 580.2427 216.8697C582.9422 218.3519 585.0558 220.3974 586.5907 222.9996C588.1255 225.6016 588.893 228.6263 588.893 232.0668C588.893 235.5072 588.1255 238.4782 586.5907 241.1005C585.0558 243.7228 582.9422 245.7883 580.2427 247.2973C577.5433 248.8063 574.4871 249.5574 571.0808 249.5507ZM571.0808 244.1319C573.2821 244.1319 575.2612 243.6356 577.0047 242.6497C578.7483 241.6639 580.1215 240.2488 581.1178 238.4246C582.1074 236.6004 582.6056 234.4812 582.6056 232.0668C582.6056 229.6524 582.1074 227.4996 581.1178 225.7089C580.1215 223.9251 578.755 222.5368 577.0047 221.5442C575.2545 220.5517 573.2821 220.0621 571.0808 220.0621C568.8796 220.0621 566.9139 220.5584 565.1905 221.5442C563.4606 222.5368 562.0805 223.9184 561.0439 225.7089C560.0072 227.4929 559.4888 229.6122 559.4888 232.0668C559.4888 234.5214 560.0072 236.5937 561.0439 238.4246C562.0805 240.2555 563.4606 241.6639 565.1905 242.6497C566.9139 243.6423 568.8796 244.1319 571.0808 244.1319Z"></path><path fill="rgb(255, 255, 255)" stroke="none" fill-opacity="1" stroke-width="1" stroke-opacity="1" color="rgb(51, 51, 51)" class="cls-1" id="tSvg18e45c7bb0d" title="Path 22" d="M611.9491 249.5507C609.0141 249.5507 606.4358 249.0142 604.2076 247.9344C601.9862 246.8614 600.2561 245.2116 599.0242 242.9985C597.7923 240.7853 597.1797 237.9953 597.1797 234.6421C597.1797 228.0831 597.1797 221.5241 597.1797 214.9652C599.2531 214.9652 601.3265 214.9652 603.3999 214.9652C603.3999 221.2894 603.3999 227.6136 603.3999 233.9379C603.3999 237.2912 604.2076 239.8128 605.8299 241.4895C607.4523 243.1661 609.7276 244.0045 612.6627 244.0045C614.8235 244.0045 616.7017 243.5618 618.2971 242.6833C619.8925 241.8047 621.1245 240.5103 621.9861 238.8136C622.8478 237.1168 623.2786 235.058 623.2786 232.6503C623.2786 226.7574 623.2786 220.8646 623.2786 214.9719C625.3519 214.9719 627.4253 214.9719 629.4987 214.9719C629.4987 226.3707 629.4987 237.7696 629.4987 249.1685C627.5353 249.1685 625.5718 249.1685 623.6084 249.1685C623.6084 246.0924 623.6084 243.0164 623.6084 239.9403C623.9315 240.7585 624.2546 241.5767 624.5778 242.3949C623.4536 244.6751 621.7707 246.4389 619.529 247.6863C617.2806 248.9337 614.7562 249.5574 611.9491 249.5507Z"></path><path fill="rgb(255, 255, 255)" stroke="none" fill-opacity="1" stroke-width="1" stroke-opacity="1" color="rgb(51, 51, 51)" class="cls-1" id="tSvg52ef9d668a" title="Path 23" d="M644.4633 208.3793C643.2516 208.3793 642.2486 207.9903 641.4543 207.219C640.6532 206.4478 640.256 205.5022 640.256 204.3822C640.256 203.2622 640.6532 202.2562 641.4543 201.4783C642.2554 200.707 643.2583 200.318 644.4633 200.318C645.6683 200.318 646.678 200.6936 647.4724 201.4447C648.2735 202.1959 648.6706 203.1348 648.6706 204.2481C648.6706 205.3614 648.2802 206.3874 647.506 207.1855C646.7252 207.9836 645.7154 208.3793 644.4633 208.3793ZM641.3533 249.155C641.3533 237.7561 641.3533 226.3572 641.3533 214.9584C643.4266 214.9584 645.5 214.9584 647.5734 214.9584C647.5734 226.3572 647.5734 237.7561 647.5734 249.155C645.5 249.155 643.4266 249.155 641.3533 249.155Z"></path><path fill="rgb(255, 255, 255)" stroke="none" fill-opacity="1" stroke-width="1" stroke-opacity="1" color="rgb(51, 51, 51)" class="cls-1" id="tSvg8b266e7e29" title="Path 24" d="M669.263 249.5507C666.4154 249.5507 663.7025 249.1618 661.1378 248.3905C658.5663 247.6192 656.5467 246.6736 655.0792 245.5536C655.9431 243.9195 656.807 242.2853 657.6709 240.6512C659.1385 241.6437 660.9493 242.4821 663.1101 243.1661C665.271 243.8569 667.4723 244.199 669.714 244.199C672.6086 244.199 674.6887 243.7899 675.961 242.9717C677.2333 242.1534 677.8728 241.0133 677.8728 239.5513C677.8728 238.4782 677.4824 237.6399 676.7082 237.0363C675.9341 236.4327 674.9041 235.9834 673.6318 235.6816C672.3595 235.3798 670.9459 235.1116 669.3909 234.8769C667.8358 234.6421 666.2808 234.3403 664.7258 233.9715C663.1707 233.6093 661.7437 233.0929 660.4512 232.4223C659.1587 231.7583 658.122 230.8328 657.3411 229.6457C656.5602 228.4654 656.1765 226.8826 656.1765 224.9042C656.1765 222.9258 656.7622 221.0345 657.9268 219.4853C659.0914 217.9361 660.7474 216.7423 662.8813 215.904C665.0152 215.0658 667.5531 214.6432 670.4882 214.6432C672.7298 214.6432 675.0118 214.9115 677.3208 215.448C679.6298 215.9845 681.5215 216.749 682.9889 217.7416C682.1048 219.3758 681.2208 221.0099 680.3367 222.6441C678.7816 221.6113 677.166 220.9004 675.4763 220.5181C673.7934 220.1291 672.1104 219.9347 670.4276 219.9347C667.7079 219.9347 665.6749 220.3773 664.342 221.2559C663.0024 222.1411 662.336 223.2678 662.336 224.6427C662.336 225.8028 662.7332 226.6948 663.5342 227.3185C664.3353 227.9422 665.372 228.4251 666.6443 228.7739C667.9166 229.1159 669.3303 229.411 670.8853 229.6457C672.4403 229.8805 673.9953 230.1822 675.5504 230.5511C677.1054 230.92 678.5191 231.423 679.7914 232.0668C681.0637 232.7106 682.1003 233.616 682.9014 234.7763C683.7025 235.9364 684.0996 237.4856 684.0996 239.4239C684.0996 241.4895 683.4938 243.2734 682.2888 244.7824C681.0772 246.2913 679.374 247.4583 677.1727 248.2966C674.9714 249.1349 672.3393 249.5574 669.263 249.5507Z"></path><path fill="rgb(255, 255, 255)" stroke="none" fill-opacity="1" stroke-width="1" stroke-opacity="1" color="rgb(51, 51, 51)" class="cls-1" id="tSvg11cb3437a60" title="Path 25" d="M701.7165 249.5507C698.8691 249.5507 696.1562 249.1618 693.5914 248.3905C691.0199 247.6192 689.0004 246.6736 687.5329 245.5536C688.3968 243.9195 689.2607 242.2853 690.1246 240.6512C691.592 241.6437 693.4029 242.4821 695.5638 243.1661C697.7247 243.8569 699.926 244.199 702.1676 244.199C705.0622 244.199 707.1424 243.7899 708.4147 242.9717C709.687 242.1534 710.3265 241.0133 710.3265 239.5513C710.3265 238.4782 709.9361 237.6399 709.1619 237.0363C708.3877 236.4327 707.3578 235.9834 706.0855 235.6816C704.8132 235.3798 703.3995 235.1116 701.8444 234.8769C700.2895 234.6421 698.7345 234.3403 697.1794 233.9715C695.6244 233.6093 694.1972 233.0929 692.9047 232.4223C691.6122 231.7583 690.5756 230.8328 689.7947 229.6457C689.0139 228.4654 688.6301 226.8826 688.6301 224.9042C688.6301 222.9258 689.2158 221.0345 690.3804 219.4853C691.5449 217.9361 693.2009 216.7423 695.3349 215.904C697.4689 215.0658 700.0068 214.6432 702.9417 214.6432C705.1834 214.6432 707.4655 214.9115 709.7745 215.448C712.0834 215.9845 713.975 216.749 715.4426 217.7416C714.5584 219.3758 713.6743 221.0099 712.7902 222.6441C711.2352 221.6113 709.6197 220.9004 707.93 220.5181C706.247 220.1291 704.5641 219.9347 702.8811 219.9347C700.1616 219.9347 698.1286 220.3773 696.7957 221.2559C695.4561 222.1411 694.7896 223.2678 694.7896 224.6427C694.7896 225.8028 695.1868 226.6948 695.9879 227.3185C696.789 227.9422 697.8257 228.4251 699.098 228.7739C700.3703 229.1159 701.7839 229.411 703.3389 229.6457C704.8939 229.8805 706.449 230.1822 708.004 230.5511C709.5591 230.92 710.9726 231.423 712.245 232.0668C713.5173 232.7106 714.554 233.616 715.355 234.7763C716.1561 235.9364 716.5533 237.4856 716.5533 239.4239C716.5533 241.4895 715.9474 243.2734 714.7425 244.7824C713.5307 246.2913 711.8276 247.4583 709.6264 248.2966C707.4251 249.1349 704.793 249.5574 701.7165 249.5507Z"></path><path fill="rgb(255, 255, 255)" stroke="none" fill-opacity="1" stroke-width="1" stroke-opacity="1" color="rgb(51, 51, 51)" class="cls-1" id="tSvg7728a83dd2" title="Path 26" d="M727.425 208.3793C726.2133 208.3793 725.2103 207.9903 724.4159 207.219C723.6148 206.4478 723.2177 205.5022 723.2177 204.3822C723.2177 203.2622 723.6148 202.2562 724.4159 201.4783C725.217 200.707 726.2201 200.318 727.425 200.318C728.63 200.318 729.6398 200.6936 730.434 201.4447C731.2351 202.1959 731.6323 203.1348 731.6323 204.2481C731.6323 205.3614 731.2419 206.3874 730.4677 207.1855C729.6869 207.9836 728.6772 208.3793 727.425 208.3793ZM724.315 249.155C724.315 237.7561 724.315 226.3572 724.315 214.9584C726.3883 214.9584 728.4617 214.9584 730.535 214.9584C730.535 226.3572 730.535 237.7561 730.535 249.155C728.4617 249.155 726.3883 249.155 724.315 249.155Z"></path></svg> 